<svg width="69" height="86" viewBox="0 0 69 86" fill="none" xmlns="http://www.w3.org/2000/svg">
<path d="M68.7084 78.4248L56.3317 43.7088C59.5567 40.7341 61.4646 36.8482 61.7461 32.6174C62.0428 28.1578 60.4749 23.7045 57.4245 20.2628C57.5208 14.4502 58.5999 9.60916 59.4752 5.6847C59.7193 4.58972 59.9502 3.5553 60.1472 2.56392C60.2721 1.93385 60.1085 1.28085 59.7007 0.784357C59.2934 0.287663 58.6848 -0.000213623 58.0425 -0.000213623H50.6371C49.6653 -0.000213623 48.8149 0.65279 48.5639 1.59186C46.3341 9.93707 43.0793 17.9916 34.4999 20.5931C25.92 17.9914 22.6652 9.93667 20.4356 1.59186C20.1848 0.652992 19.3344 -1.24511e-05 18.3623 -1.24511e-05H10.9576C10.3151 -1.24511e-05 9.70652 0.287663 9.29894 0.784357C8.89157 1.28085 8.72781 1.93385 8.85294 2.56392C9.04989 3.5553 9.28044 4.58952 9.52486 5.6847C10.4 9.60916 11.479 14.4502 11.5756 20.2628C8.52483 23.7045 6.9573 28.1578 7.25403 32.6174C7.53527 36.8478 9.44338 40.7341 12.668 43.7088L0.29127 78.4248C-0.0963884 79.512 0.445569 80.7108 1.51761 81.1385C8.99658 84.1218 21.0057 85.833 34.4657 85.833C47.9702 85.833 60.0041 84.1216 67.4825 81.1385C68.5547 80.7106 69.0963 79.512 68.7084 78.4248ZM34.4657 81.5416C30.6887 81.5416 27.0033 81.3965 23.5049 81.1224L24.8065 72.4681C24.9825 71.2963 24.1754 70.2031 23.0036 70.0271C21.8305 69.8503 20.7386 70.658 20.5628 71.8298L19.227 80.7116C13.7179 80.0805 8.84107 79.108 5.05039 77.8563L16.4158 45.9768C17.7266 46.4099 19.2004 46.6425 20.7251 46.6425C20.919 46.6425 21.1142 46.6389 21.3095 46.6314C22.494 46.5858 23.4168 45.5888 23.3709 44.4045C23.3253 43.2202 22.3349 42.2972 21.1437 42.343C19.3426 42.4137 17.5498 42.0107 16.4468 41.2923C13.5109 38.9815 11.7669 35.8032 11.536 32.3329C11.3008 28.7994 12.6581 25.2533 15.2595 22.6037C15.6534 22.2023 15.8738 21.6628 15.8738 21.1003C15.8738 14.4407 14.6761 9.06801 13.7135 4.75106C13.6791 4.59677 13.6453 4.44387 13.6111 4.29199H16.7274C17.7464 7.87325 19.1214 11.82 21.3598 15.3627C24.1468 19.773 27.8418 22.8034 32.3542 24.3985V29.0729C32.3542 30.2581 33.3148 31.2188 34.5001 31.2188C35.6848 31.2188 36.646 30.2583 36.646 29.0729V24.3985C41.1585 22.803 44.8535 19.773 47.6399 15.3627C49.8783 11.8198 51.2535 7.87305 52.2723 4.29199H55.3886C55.3552 4.44367 55.3208 4.59677 55.2862 4.75106C54.324 9.06801 53.1258 14.4407 53.1258 21.1003C53.1258 21.6628 53.3467 22.2023 53.7406 22.6037C56.342 25.2531 57.6991 28.7994 57.4637 32.3329C57.2332 35.8032 55.4894 38.9813 52.5533 41.2923C51.4505 42.0105 49.6599 42.4133 47.8559 42.343C46.664 42.3006 45.6744 43.2206 45.6288 44.4045C45.5831 45.5888 46.5061 46.5858 47.6902 46.6314C47.8859 46.6389 48.0803 46.6425 48.2744 46.6425C49.7991 46.6425 51.2729 46.4101 52.5837 45.9768L63.9495 77.8561C56.9139 80.1785 46.1224 81.5416 34.4657 81.5416Z" fill="#E0E0E0"/>
</svg>
