<svg width="31" height="31" viewBox="0 0 31 31" fill="none" xmlns="http://www.w3.org/2000/svg">
<path fill-rule="evenodd" clip-rule="evenodd" d="M0 15.5C0 6.93959 6.93959 0 15.5 0C24.0604 0 31 6.93959 31 15.5C31 24.0604 24.0604 31 15.5 31C6.93959 31 0 24.0604 0 15.5ZM15.5 7.75C19.7625 7.75 23.25 11.2375 23.25 15.5C23.25 19.375 20.4406 22.6687 16.5656 23.25V17.7281H18.4062L18.7937 15.5H16.6625V14.0469C16.6625 13.4656 16.9531 12.8844 17.9219 12.8844H18.8906V10.9469C18.8906 10.9469 18.0188 10.7531 17.1469 10.7531C15.4031 10.7531 14.2406 11.8187 14.2406 13.7562V15.5H12.3031V17.7281H14.2406V23.1531C10.5594 22.5719 7.75 19.375 7.75 15.5C7.75 11.2375 11.2375 7.75 15.5 7.75Z" fill="#4CE0D7"/>
</svg>
