<svg width="31" height="31" viewBox="0 0 31 31" fill="none" xmlns="http://www.w3.org/2000/svg">
<path d="M15.5 18.2125C14.0469 18.2125 12.7875 17.05 12.7875 15.5C12.7875 14.0469 13.95 12.7875 15.5 12.7875C16.9531 12.7875 18.2125 13.95 18.2125 15.5C18.2125 16.9531 16.9531 18.2125 15.5 18.2125Z" fill="#4CE0D7"/>
<path fill-rule="evenodd" clip-rule="evenodd" d="M18.7937 8.9125H12.2063C11.4313 9.00937 11.0438 9.10625 10.7531 9.20312C10.3656 9.3 10.075 9.49375 9.78438 9.78437C9.55441 10.0143 9.44575 10.2443 9.31442 10.5223C9.27981 10.5955 9.24353 10.6723 9.20312 10.7531C9.18814 10.7981 9.17083 10.8454 9.15229 10.896C9.05094 11.1729 8.9125 11.5511 8.9125 12.2062V18.7937C9.00938 19.5687 9.10625 19.9562 9.20312 20.2469C9.3 20.6344 9.49375 20.925 9.78438 21.2156C10.0143 21.4456 10.2443 21.5542 10.5223 21.6856C10.5956 21.7202 10.6723 21.7564 10.7531 21.7969C10.7981 21.8119 10.8454 21.8292 10.896 21.8477C11.1729 21.9491 11.5511 22.0875 12.2063 22.0875H18.7937C19.5687 21.9906 19.9563 21.8937 20.2469 21.7969C20.6344 21.7 20.925 21.5062 21.2156 21.2156C21.4456 20.9857 21.5542 20.7557 21.6856 20.4777C21.7202 20.4044 21.7564 20.3277 21.7969 20.2469C21.8119 20.2019 21.8292 20.1546 21.8477 20.104C21.9491 19.8271 22.0875 19.4489 22.0875 18.7937V12.2062C21.9906 11.4312 21.8938 11.0437 21.7969 10.7531C21.7 10.3656 21.5062 10.075 21.2156 9.78437C20.9857 9.5544 20.7557 9.44575 20.4777 9.31442C20.4045 9.27983 20.3276 9.24349 20.2469 9.20312C20.2019 9.18814 20.1546 9.17083 20.104 9.15228C19.8271 9.05094 19.4489 8.9125 18.7937 8.9125ZM15.5 11.3344C13.175 11.3344 11.3344 13.175 11.3344 15.5C11.3344 17.825 13.175 19.6656 15.5 19.6656C17.825 19.6656 19.6656 17.825 19.6656 15.5C19.6656 13.175 17.825 11.3344 15.5 11.3344ZM20.7312 11.2375C20.7312 11.7725 20.2975 12.2062 19.7625 12.2062C19.2275 12.2062 18.7937 11.7725 18.7937 11.2375C18.7937 10.7025 19.2275 10.2687 19.7625 10.2687C20.2975 10.2687 20.7312 10.7025 20.7312 11.2375Z" fill="#4CE0D7"/>
<path fill-rule="evenodd" clip-rule="evenodd" d="M0 15.5C0 6.93959 6.93959 0 15.5 0C24.0604 0 31 6.93959 31 15.5C31 24.0604 24.0604 31 15.5 31C6.93959 31 0 24.0604 0 15.5ZM12.2063 7.45937H18.7937C19.6656 7.55625 20.2469 7.65312 20.7312 7.84687C21.3125 8.1375 21.7 8.33125 22.1844 8.81562C22.6687 9.3 22.9594 9.78437 23.1531 10.2687C23.3469 10.7531 23.5406 11.3344 23.5406 12.2062V18.7937C23.4437 19.6656 23.3469 20.2469 23.1531 20.7312C22.8625 21.3125 22.6687 21.7 22.1844 22.1844C21.7 22.6687 21.2156 22.9594 20.7312 23.1531C20.2469 23.3469 19.6656 23.5406 18.7937 23.5406H12.2063C11.3344 23.4437 10.7531 23.3469 10.2688 23.1531C9.6875 22.8625 9.3 22.6687 8.81563 22.1844C8.33125 21.7 8.04063 21.2156 7.84688 20.7312C7.65313 20.2469 7.45937 19.6656 7.45937 18.7937V12.2062C7.55625 11.3344 7.65313 10.7531 7.84688 10.2687C8.1375 9.6875 8.33125 9.3 8.81563 8.81562C9.3 8.33125 9.78438 8.04062 10.2688 7.84687C10.7531 7.65312 11.3344 7.45937 12.2063 7.45937Z" fill="#4CE0D7"/>
</svg>
