<svg width="32" height="31" viewBox="0 0 32 31" fill="none" xmlns="http://www.w3.org/2000/svg">
<path fill-rule="evenodd" clip-rule="evenodd" d="M0 15.5C0 6.93959 7.16344 0 16 0C24.8366 0 32 6.93959 32 15.5C32 24.0604 24.8366 31 16 31C7.16344 31 0 24.0604 0 15.5ZM8.2 12.8844V23.25H11.6V12.8844H8.2ZM8 9.59063C8 10.6562 8.8 11.4313 9.9 11.4313C11 11.4313 11.8 10.6562 11.8 9.59063C11.8 8.525 11 7.75 9.9 7.75C8.9 7.75 8 8.525 8 9.59063ZM20.6 23.25H23.8V16.8563C23.8 13.6594 21.8 12.5938 19.9 12.5938C18.2 12.5938 17 13.6594 16.7 14.3375V12.8844H13.5V23.25H16.9V17.7281C16.9 16.275 17.9 15.5 18.9 15.5C19.9 15.5 20.6 15.9844 20.6 17.6312V23.25Z" fill="#4CE0D7"/>
</svg>
