<svg width="222" height="27" viewBox="0 0 222 27" fill="none" xmlns="http://www.w3.org/2000/svg">
<path d="M5.272 0.799998V26H2.932V0.799998H5.272ZM14.992 24.884V26H5.164V24.884H14.992ZM17.188 20.168L15.1 26H9.124L10.42 24.884C11.692 24.884 12.724 24.692 13.516 24.308C14.332 23.9 14.992 23.336 15.496 22.616C16 21.896 16.444 21.08 16.828 20.168H17.188ZM3.04 23.372V26H0.16V25.64C0.16 25.64 0.232 25.64 0.376 25.64C0.544 25.64 0.628 25.64 0.628 25.64C1.252 25.64 1.78 25.424 2.212 24.992C2.668 24.536 2.908 23.996 2.932 23.372H3.04ZM3.04 3.428H2.932C2.908 2.804 2.668 2.276 2.212 1.844C1.78 1.388 1.252 1.16 0.628 1.16C0.628 1.16 0.544 1.16 0.376 1.16C0.232 1.16 0.16 1.16 0.16 1.16V0.799998H3.04V3.428ZM5.164 3.428V0.799998H8.044V1.16C8.02 1.16 7.936 1.16 7.792 1.16C7.648 1.16 7.576 1.16 7.576 1.16C6.952 1.16 6.412 1.388 5.956 1.844C5.524 2.276 5.296 2.804 5.272 3.428H5.164ZM24.3115 0.799998V16.64C24.3115 18.368 24.6235 19.892 25.2475 21.212C25.8955 22.532 26.7955 23.564 27.9475 24.308C29.0995 25.028 30.4315 25.388 31.9435 25.388C33.5515 25.388 34.9555 25.04 36.1555 24.344C37.3555 23.648 38.2915 22.688 38.9635 21.464C39.6355 20.216 39.9715 18.764 39.9715 17.108V0.799998H41.6635V17.108C41.6635 18.98 41.2555 20.624 40.4395 22.04C39.6475 23.432 38.5195 24.524 37.0555 25.316C35.5915 26.108 33.8875 26.504 31.9435 26.504C29.9515 26.504 28.1995 26.12 26.6875 25.352C25.1995 24.56 24.0355 23.468 23.1955 22.076C22.3795 20.66 21.9715 19.016 21.9715 17.144V0.799998H24.3115ZM22.0795 0.799998V2.96H21.9715C21.9715 2.432 21.7795 2 21.3955 1.664C21.0355 1.328 20.5915 1.16 20.0635 1.16C20.0635 1.16 19.9675 1.16 19.7755 1.16C19.5835 1.16 19.4875 1.16 19.4875 1.16V0.799998H22.0795ZM26.7955 0.799998V1.16C26.7955 1.16 26.6995 1.16 26.5075 1.16C26.3155 1.16 26.2195 1.16 26.2195 1.16C25.6915 1.16 25.2355 1.328 24.8515 1.664C24.4915 2 24.3115 2.432 24.3115 2.96H24.2395V0.799998H26.7955ZM40.0795 0.799998V2.96H39.9715C39.9715 2.432 39.7795 2 39.3955 1.664C39.0355 1.328 38.5915 1.16 38.0635 1.16C38.0635 1.16 37.9675 1.16 37.7755 1.16C37.5835 1.16 37.4875 1.16 37.4875 1.16V0.799998H40.0795ZM44.1475 0.799998V1.16C44.1475 1.16 44.0515 1.16 43.8595 1.16C43.6675 1.16 43.5715 1.16 43.5715 1.16C43.0435 1.16 42.5875 1.328 42.2035 1.664C41.8435 2 41.6635 2.432 41.6635 2.96H41.5915V0.799998H44.1475ZM51.5691 0.799998L67.5891 25.964H64.7091L48.7611 0.799998H51.5691ZM52.0371 23.408C51.8211 23.744 51.7611 24.092 51.8571 24.452C51.9531 24.788 52.1331 25.076 52.3971 25.316C52.6851 25.532 52.9851 25.64 53.2971 25.64C53.2971 25.64 53.3691 25.64 53.5131 25.64C53.6811 25.64 53.7651 25.64 53.7651 25.64V26H45.5931V25.64H46.0971C46.8651 25.64 47.5731 25.424 48.2211 24.992C48.8691 24.56 49.3851 24.068 49.7691 23.516L52.0371 23.408ZM57.0771 12.608L57.9051 14.156L50.4171 25.964H48.1131L57.0771 12.608ZM63.0891 23.408L66.0411 23.552C66.4251 24.104 66.9411 24.596 67.5891 25.028C68.2371 25.436 68.9331 25.64 69.6771 25.64H70.1811V26H61.3971V25.64C61.3971 25.64 61.4691 25.64 61.6131 25.64C61.7571 25.64 61.8291 25.64 61.8291 25.64C62.3331 25.64 62.7411 25.4 63.0531 24.92C63.3891 24.44 63.4011 23.936 63.0891 23.408ZM54.9171 0.799998V1.16C54.9171 1.16 54.8451 1.16 54.7011 1.16C54.5571 1.16 54.4851 1.16 54.4851 1.16C54.1731 1.16 53.8731 1.28 53.5851 1.52C53.3211 1.736 53.1411 2.024 53.0451 2.384C52.9731 2.72 53.0331 3.056 53.2251 3.392L50.3451 3.284C49.9611 2.732 49.4451 2.24 48.7971 1.808C48.1731 1.376 47.4771 1.16 46.7091 1.16H46.2051V0.799998H54.9171ZM67.0491 0.799998L58.5891 13.256L57.3651 12.392L64.7091 0.799998H67.0491ZM69.4971 0.799998V1.16H68.9931C68.2491 1.16 67.5531 1.376 66.9051 1.808C66.2811 2.24 65.7651 2.732 65.3571 3.284L63.0531 3.392C63.2691 3.056 63.3291 2.72 63.2331 2.384C63.1611 2.024 62.9931 1.736 62.7291 1.52C62.4651 1.28 62.1651 1.16 61.8291 1.16C61.8291 1.16 61.7571 1.16 61.6131 1.16C61.4691 1.16 61.3971 1.16 61.3971 1.16V0.799998H69.4971ZM92.0011 26.504L80.8411 1.016H83.9011L92.7211 23.084L92.0011 26.504ZM92.0011 26.504L91.6771 23.984L101.253 0.907999H103.413L93.6571 22.796C93.6571 22.796 93.5851 22.952 93.4411 23.264C93.3211 23.552 93.1651 23.912 92.9731 24.344C92.8051 24.776 92.6491 25.196 92.5051 25.604C92.3851 26.012 92.3251 26.312 92.3251 26.504H92.0011ZM100.245 3.392C100.509 2.672 100.461 2.12 100.101 1.736C99.7411 1.352 99.3331 1.16 98.8771 1.16H98.5531V0.799998H105.789V1.16C105.789 1.16 105.729 1.16 105.609 1.16C105.513 1.16 105.465 1.16 105.465 1.16C104.937 1.16 104.373 1.34 103.773 1.7C103.173 2.036 102.681 2.612 102.297 3.428L100.245 3.392ZM84.8731 3.392L81.8851 3.428C81.5251 2.612 81.0451 2.036 80.4451 1.7C79.8451 1.34 79.2691 1.16 78.7171 1.16C78.7171 1.16 78.6691 1.16 78.5731 1.16C78.4771 1.16 78.4291 1.16 78.4291 1.16V0.799998H86.5291V1.16H86.2051C85.7491 1.16 85.3411 1.352 84.9811 1.736C84.6451 2.12 84.6091 2.672 84.8731 3.392ZM112.71 0.799998V26H110.37V0.799998H112.71ZM122.43 24.884V26H112.602V24.884H122.43ZM120.882 13.04V14.12H112.602V13.04H120.882ZM122.43 0.799998V1.916H112.602V0.799998H122.43ZM124.626 20.168L122.538 26H116.562L117.858 24.884C119.13 24.884 120.162 24.692 120.954 24.308C121.77 23.9 122.43 23.336 122.934 22.616C123.438 21.896 123.882 21.08 124.266 20.168H124.626ZM120.882 14.048V16.424H120.522V15.884C120.522 15.404 120.354 14.996 120.018 14.66C119.682 14.3 119.274 14.12 118.794 14.12V14.048H120.882ZM120.882 10.736V13.112H118.794V13.04C119.274 13.016 119.682 12.836 120.018 12.5C120.354 12.14 120.522 11.72 120.522 11.24V10.736H120.882ZM122.43 1.808V4.688H122.07V4.04C122.07 3.464 121.866 2.972 121.458 2.564C121.05 2.132 120.546 1.904 119.946 1.88V1.808H122.43ZM122.43 0.151998V1.196L118.038 0.799998C118.566 0.799998 119.118 0.763999 119.694 0.692C120.294 0.619999 120.846 0.535999 121.35 0.439999C121.854 0.343998 122.214 0.247998 122.43 0.151998ZM110.478 23.372V26H107.598V25.64C107.598 25.64 107.67 25.64 107.813 25.64C107.982 25.64 108.066 25.64 108.066 25.64C108.69 25.64 109.218 25.424 109.65 24.992C110.106 24.536 110.346 23.996 110.37 23.372H110.478ZM110.478 3.428H110.37C110.37 2.804 110.142 2.276 109.686 1.844C109.23 1.388 108.69 1.16 108.066 1.16C108.066 1.16 107.994 1.16 107.85 1.16C107.706 1.16 107.634 1.16 107.634 1.16L107.598 0.799998H110.478V3.428ZM130.399 0.259999L151.315 22.58L151.639 26.504L130.723 4.22L130.399 0.259999ZM130.471 23.444V26H127.483V25.64C127.483 25.64 127.591 25.64 127.807 25.64C128.023 25.64 128.143 25.64 128.167 25.64C128.767 25.64 129.283 25.424 129.715 24.992C130.147 24.56 130.363 24.044 130.363 23.444H130.471ZM132.019 23.444C132.019 24.044 132.235 24.56 132.667 24.992C133.099 25.424 133.615 25.64 134.215 25.64C134.239 25.64 134.359 25.64 134.575 25.64C134.791 25.64 134.899 25.64 134.899 25.64V26H131.911V23.444H132.019ZM130.399 0.259999L131.983 2.276L132.019 26H130.363V4.76C130.363 3.536 130.303 2.48 130.183 1.592C130.087 0.703999 130.039 0.259999 130.039 0.259999H130.399ZM151.639 0.799998V21.896C151.639 22.664 151.663 23.408 151.711 24.128C151.759 24.824 151.807 25.4 151.855 25.856C151.927 26.288 151.963 26.504 151.963 26.504H151.639L150.019 24.596V0.799998H151.639ZM154.519 0.799998V1.16C154.519 1.16 154.411 1.16 154.195 1.16C153.979 1.16 153.871 1.16 153.871 1.16C153.271 1.16 152.755 1.376 152.323 1.808C151.891 2.216 151.663 2.732 151.639 3.356H151.531V0.799998H154.519ZM147.103 0.799998H150.091V3.356H150.019C149.995 2.732 149.767 2.216 149.335 1.808C148.927 1.376 148.411 1.16 147.787 1.16C147.787 1.16 147.679 1.16 147.463 1.16C147.247 1.16 147.127 1.16 147.103 1.16V0.799998ZM168.445 0.907999V26H166.105V0.907999H168.445ZM177.697 0.763999V1.844H156.853V0.763999H177.697ZM177.697 1.736V4.652L177.337 4.616V4.004C177.337 3.404 177.121 2.9 176.689 2.492C176.281 2.084 175.789 1.868 175.213 1.844V1.736H177.697ZM177.697 0.115999V1.16L173.305 0.763999C173.833 0.763999 174.385 0.727998 174.961 0.655998C175.561 0.583999 176.113 0.499999 176.617 0.403999C177.121 0.307999 177.481 0.211999 177.697 0.115999ZM166.213 23.372V26H163.333V25.64C163.333 25.64 163.405 25.64 163.549 25.64C163.717 25.64 163.801 25.64 163.801 25.64C164.425 25.64 164.953 25.424 165.385 24.992C165.841 24.536 166.081 23.996 166.105 23.372H166.213ZM168.337 23.372H168.445C168.469 23.996 168.697 24.536 169.129 24.992C169.585 25.424 170.125 25.64 170.749 25.64C170.749 25.64 170.821 25.64 170.965 25.64C171.133 25.64 171.217 25.64 171.217 25.64V26H168.337V23.372ZM159.337 1.736V1.844C158.737 1.868 158.233 2.084 157.825 2.492C157.417 2.9 157.213 3.404 157.213 4.004V4.616L156.853 4.652V1.736H159.337ZM156.853 0.115999C157.093 0.211999 157.453 0.307999 157.933 0.403999C158.437 0.499999 158.989 0.583999 159.589 0.655998C160.189 0.727998 160.741 0.763999 161.245 0.763999L156.853 1.16V0.115999ZM185.011 0.799998V16.64C185.011 18.368 185.323 19.892 185.947 21.212C186.595 22.532 187.495 23.564 188.647 24.308C189.799 25.028 191.131 25.388 192.643 25.388C194.251 25.388 195.655 25.04 196.855 24.344C198.055 23.648 198.991 22.688 199.663 21.464C200.335 20.216 200.671 18.764 200.671 17.108V0.799998H202.363V17.108C202.363 18.98 201.955 20.624 201.139 22.04C200.347 23.432 199.219 24.524 197.755 25.316C196.291 26.108 194.587 26.504 192.643 26.504C190.651 26.504 188.899 26.12 187.387 25.352C185.899 24.56 184.735 23.468 183.895 22.076C183.079 20.66 182.671 19.016 182.671 17.144V0.799998H185.011ZM182.779 0.799998V2.96H182.671C182.671 2.432 182.479 2 182.095 1.664C181.735 1.328 181.291 1.16 180.763 1.16C180.763 1.16 180.667 1.16 180.475 1.16C180.283 1.16 180.187 1.16 180.187 1.16V0.799998H182.779ZM187.495 0.799998V1.16C187.495 1.16 187.399 1.16 187.207 1.16C187.015 1.16 186.919 1.16 186.919 1.16C186.391 1.16 185.935 1.328 185.551 1.664C185.191 2 185.011 2.432 185.011 2.96H184.939V0.799998H187.495ZM200.779 0.799998V2.96H200.671C200.671 2.432 200.479 2 200.095 1.664C199.735 1.328 199.291 1.16 198.763 1.16C198.763 1.16 198.667 1.16 198.475 1.16C198.283 1.16 198.187 1.16 198.187 1.16V0.799998H200.779ZM204.847 0.799998V1.16C204.847 1.16 204.751 1.16 204.559 1.16C204.367 1.16 204.271 1.16 204.271 1.16C203.743 1.16 203.287 1.328 202.903 1.664C202.543 2 202.363 2.432 202.363 2.96H202.291V0.799998H204.847ZM215.688 0.295998C216.072 0.295998 216.48 0.319999 216.912 0.368C217.368 0.415999 217.8 0.487999 218.208 0.583999C218.64 0.655999 219.024 0.739999 219.36 0.835998C219.72 0.907998 219.996 0.991999 220.188 1.088V5.084H219.864C219.864 3.932 219.468 3.032 218.676 2.384C217.884 1.712 216.924 1.376 215.796 1.376C214.476 1.376 213.408 1.796 212.592 2.636C211.776 3.452 211.368 4.412 211.368 5.516C211.368 5.972 211.464 6.512 211.656 7.136C211.872 7.736 212.256 8.3 212.808 8.828L219.9 15.38C220.62 16.052 221.1 16.772 221.34 17.54C221.58 18.308 221.7 19.052 221.7 19.772C221.7 21.764 221.088 23.384 219.864 24.632C218.664 25.88 217.032 26.504 214.968 26.504C214.392 26.504 213.708 26.444 212.916 26.324C212.148 26.204 211.392 26 210.648 25.712C209.928 25.4 209.328 25.004 208.848 24.524C208.776 24.14 208.74 23.66 208.74 23.084C208.74 22.508 208.788 21.908 208.884 21.284C208.98 20.636 209.112 20.048 209.28 19.52H209.604C209.484 20.744 209.64 21.812 210.072 22.724C210.504 23.636 211.128 24.332 211.944 24.812C212.784 25.268 213.732 25.472 214.788 25.424C216.108 25.352 217.236 24.896 218.172 24.056C219.132 23.192 219.612 22.04 219.612 20.6C219.612 19.904 219.492 19.28 219.252 18.728C219.012 18.152 218.664 17.66 218.208 17.252L211.296 10.844C210.576 10.172 210.072 9.44 209.784 8.648C209.496 7.832 209.352 7.076 209.352 6.38C209.352 5.372 209.592 4.4 210.072 3.464C210.552 2.528 211.26 1.772 212.196 1.196C213.156 0.595999 214.32 0.295998 215.688 0.295998ZM220.188 0.655998V1.412H217.452V0.655998H220.188Z" fill="#262626"/>
</svg>
