<svg width="31" height="31" viewBox="0 0 31 31" fill="none" xmlns="http://www.w3.org/2000/svg">
<path fill-rule="evenodd" clip-rule="evenodd" d="M0 15.5C0 6.93959 6.93959 0 15.5 0C24.0604 0 31 6.93959 31 15.5C31 24.0604 24.0604 31 15.5 31C6.93959 31 0 24.0604 0 15.5ZM21.4094 11.1406C22.0875 11.0437 22.6687 10.9469 23.25 10.6562C22.8625 11.3344 22.2812 11.9156 21.6031 12.3031C21.7969 16.8562 18.5031 21.7969 12.5938 21.7969C10.85 21.7969 9.20312 21.2156 7.75 20.3438C9.39687 20.5375 11.1406 20.0531 12.3031 19.1812C10.85 19.1812 9.6875 18.2125 9.3 16.9531C9.78438 17.05 10.2688 16.9531 10.7531 16.8562C9.3 16.4688 8.23438 15.1125 8.23438 13.6594C8.71875 13.8531 9.20312 14.0469 9.6875 14.0469C8.33125 13.0781 7.84688 11.2375 8.71875 9.78438C10.3656 11.7219 12.6906 12.9812 15.3063 13.0781C14.8219 11.1406 16.3719 9.20312 18.4062 9.20312C19.2781 9.20312 20.15 9.59062 20.7312 10.1719C21.5062 9.97813 22.1844 9.78437 22.7656 9.39687C22.5719 10.1719 22.0875 10.7531 21.4094 11.1406Z" fill="#4CE0D7"/>
</svg>
