<svg width="31" height="31" viewBox="0 0 31 31" fill="none" xmlns="http://www.w3.org/2000/svg">
<path d="M18.0188 15.5L13.95 13.175V17.825L18.0188 15.5Z" fill="#4CE0D7"/>
<path fill-rule="evenodd" clip-rule="evenodd" d="M0 15.5C0 6.93959 6.93959 0 15.5 0C24.0604 0 31 6.93959 31 15.5C31 24.0604 24.0604 31 15.5 31C6.93959 31 0 24.0604 0 15.5ZM21.5063 10.3656C22.1844 10.5594 22.6688 11.0438 22.8625 11.7219C23.25 12.9813 23.25 15.5 23.25 15.5C23.25 15.5 23.25 18.0188 22.9594 19.2781C22.7656 19.9563 22.2812 20.4406 21.6031 20.6344C20.3437 20.925 15.5 20.925 15.5 20.925C15.5 20.925 10.5594 20.925 9.39687 20.6344C8.71875 20.4406 8.23438 19.9563 8.04063 19.2781C7.75 18.0188 7.75 15.5 7.75 15.5C7.75 15.5 7.75 12.9813 7.94375 11.7219C8.1375 11.0438 8.62188 10.5594 9.30001 10.3656C10.5594 10.075 15.4031 10.075 15.4031 10.075C15.4031 10.075 20.3438 10.075 21.5063 10.3656Z" fill="#4CE0D7"/>
</svg>
